<svg width="128" height="36" viewBox="0 0 128 36" fill="none" xmlns="http://www.w3.org/2000/svg">
<path d="M15.4944 0L0 9.0144V26.9856L15.4944 36L30.9888 26.9856V9L15.4944 0ZM26.3808 24.3216L15.48 30.6432L4.5792 24.3216V11.664L15.48 5.328L26.3808 11.664V24.3216Z" fill="#002D74"/>
<path d="M22.7232 22.1908L15.4944 26.3956L8.25122 22.1908V13.7956L15.4944 9.59082L22.7232 13.7956L19.7136 15.538L15.4944 13.09L11.2608 15.538V20.4484L15.4944 22.8964L19.7136 20.4484L22.7232 22.1908Z" fill="#002D74"/>
<path d="M57.1248 25.9067V12.1835H60.5088V14.4731H60.6672C60.9408 13.6811 61.4016 13.0619 62.064 12.6299C62.7264 12.1979 63.4752 11.9819 64.3248 11.9819C65.1744 11.9819 64.728 11.9819 64.9728 12.0107C65.2176 12.0251 65.4192 12.0539 65.5776 12.0827V15.0635C61.9344 14.5739 60.624 16.7339 60.624 19.5995V25.9211H57.1248V25.9067Z" fill="#002D74"/>
<path d="M79.9487 15.3657C79.3727 14.3001 78.5375 13.4649 77.4863 12.8745C76.4207 12.2841 75.1679 11.9961 73.7279 11.9961C72.2879 11.9961 71.0207 12.2841 69.9695 12.8745C68.9039 13.4649 68.0831 14.2857 67.5071 15.3657C66.9311 16.4313 66.6287 17.6697 66.6287 19.0953C66.6287 20.5209 66.9167 21.7593 67.5071 22.8105C68.0831 23.8761 68.9183 24.6969 69.9695 25.2873C71.0351 25.8777 72.2879 26.1657 73.7279 26.1657C75.1679 26.1657 76.4351 25.8777 77.4863 25.2873C78.5519 24.6969 79.3727 23.8761 79.9487 22.8105C80.5247 21.7449 80.8271 20.5065 80.8271 19.0953C80.8271 17.6841 80.5391 16.4313 79.9487 15.3657ZM77.1263 21.3561C76.8527 22.0329 76.4207 22.5801 75.8591 22.9833C75.2975 23.3865 74.5919 23.5881 73.7423 23.5881C72.8927 23.5881 72.1583 23.3865 71.5823 22.9833C71.0063 22.5801 70.5887 22.0473 70.3007 21.3561C70.0271 20.6793 69.8831 19.9161 69.8831 19.0809C69.8831 18.2457 70.0271 17.4825 70.3007 16.7913C70.5743 16.1145 71.0063 15.5673 71.5823 15.1641C72.1583 14.7609 72.8783 14.5593 73.7423 14.5593C74.6063 14.5593 75.2975 14.7609 75.8591 15.1641C76.4207 15.5673 76.8527 16.1145 77.1263 16.7913C77.3999 17.4681 77.5439 18.2313 77.5439 19.0809C77.5439 19.9305 77.3999 20.6649 77.1263 21.3561Z" fill="#002D74"/>
<path d="M86.832 17.8569V25.8921H83.3328V12.1689H86.6736V14.5017H86.8464C87.192 13.7385 87.7392 13.1193 88.488 12.6729C89.2368 12.2265 90.1584 11.9961 91.2672 11.9961C92.376 11.9961 93.1824 12.1977 93.9456 12.6009C94.7088 13.0041 95.2992 13.5945 95.7168 14.3577C96.1344 15.1209 96.3504 16.0569 96.336 17.1513V25.8921H92.8368V17.6553C92.8368 16.7337 92.5776 16.0137 92.0736 15.4953C91.5552 14.9769 90.8496 14.7177 89.9568 14.7177C89.064 14.7177 88.8048 14.8473 88.3296 15.0921C87.8544 15.3369 87.48 15.6969 87.2208 16.1577C86.9472 16.6185 86.8176 17.1801 86.8176 17.8425L86.832 17.8569Z" fill="#002D74"/>
<path d="M126.951 15.7979L123.768 16.1147C123.682 15.8123 123.523 15.5387 123.307 15.2795C123.091 15.0203 122.789 14.8043 122.415 14.6459C122.04 14.4875 121.579 14.4011 121.047 14.4011C120.514 14.4011 119.707 14.5451 119.218 14.8331C118.728 15.1211 118.483 15.5099 118.483 15.9707C118.483 16.3739 118.642 16.6907 118.959 16.9499C119.275 17.2091 119.823 17.4107 120.571 17.5691L123.106 18.0731C124.503 18.3467 125.554 18.7931 126.231 19.3979C126.922 20.0027 127.267 20.7947 127.267 21.7883C127.267 22.6523 126.994 23.4155 126.447 24.0779C125.914 24.7403 125.165 25.2443 124.215 25.6187C123.264 25.9931 122.17 26.1659 120.931 26.1659C119.117 26.1659 117.663 25.8059 116.554 25.1003C115.445 24.3947 114.783 23.4155 114.581 22.1483L117.994 21.8459C118.152 22.4651 118.483 22.9259 118.973 23.2427C119.477 23.5595 120.125 23.7179 120.931 23.7179C121.738 23.7179 122.429 23.5595 122.933 23.2427C123.437 22.9259 123.696 22.5371 123.696 22.0763C123.696 21.6155 123.538 21.3563 123.207 21.0971C122.875 20.8379 122.371 20.6507 121.695 20.5067L119.16 20.0171C117.735 19.7435 116.683 19.2827 116.007 18.6347C115.33 17.9867 114.984 17.1515 114.999 16.1579C114.999 15.3083 115.243 14.5739 115.747 13.9547C116.251 13.3355 116.957 12.8459 117.864 12.5003C118.771 12.1547 119.808 11.9819 120.989 11.9819C122.731 11.9819 124.099 12.3275 125.093 13.0043C126.087 13.6955 126.706 14.6171 126.951 15.7835V15.7979Z" fill="#002D74"/>
<path d="M112.133 15.3657C111.557 14.3001 110.722 13.4649 109.671 12.8745C108.605 12.2841 107.352 11.9961 105.912 11.9961C104.472 11.9961 103.205 12.2841 102.154 12.8745C101.088 13.4649 100.267 14.2857 99.6914 15.3657C99.1154 16.4313 98.813 17.6697 98.813 19.0953C98.813 20.5209 99.101 21.7593 99.6914 22.8105C100.267 23.8761 101.103 24.6969 102.154 25.2873C103.219 25.8777 104.472 26.1657 105.912 26.1657C107.352 26.1657 108.619 25.8777 109.671 25.2873C110.736 24.6969 111.557 23.8761 112.133 22.8105C112.709 21.7449 113.011 20.5065 113.011 19.0953C113.011 17.6841 112.723 16.4313 112.133 15.3657ZM109.311 21.3561C109.037 22.0329 108.605 22.5801 108.043 22.9833C107.482 23.3865 106.776 23.5881 105.927 23.5881C105.077 23.5881 104.343 23.3865 103.767 22.9833C103.191 22.5801 102.773 22.0473 102.485 21.3561C102.211 20.6793 102.067 19.9161 102.067 19.0809C102.067 18.2457 102.211 17.4825 102.485 16.7913C102.759 16.1145 103.191 15.5673 103.767 15.1641C104.343 14.7609 105.063 14.5593 105.927 14.5593C106.791 14.5593 107.482 14.7609 108.043 15.1641C108.605 15.5673 109.037 16.1145 109.311 16.7913C109.584 17.4681 109.728 18.2313 109.728 19.0809C109.728 19.9305 109.584 20.6649 109.311 21.3561Z" fill="#002D74"/>
<path d="M51.6961 21.3561C51.4225 22.0329 50.9905 22.5801 50.4289 22.9833C49.8673 23.3865 49.1617 23.5881 48.3121 23.5881C47.4625 23.5881 46.7281 23.3865 46.1521 22.9833C45.5761 22.5801 45.1585 22.0473 44.8705 21.3561C44.5969 20.6793 44.4529 19.9161 44.4529 19.0809C44.4529 18.2457 44.5969 17.4825 44.8705 16.7913C45.1441 16.1145 45.5761 15.5673 46.1521 15.1641C46.7281 14.7609 47.4481 14.5593 48.3121 14.5593C49.1761 14.5593 49.8673 14.7609 50.4289 15.1641C50.9329 15.5241 51.3217 15.9993 51.5953 16.5753L54.7633 15.8409C54.1297 14.3865 53.0497 13.4217 52.0561 12.8745C50.9905 12.2841 49.7377 11.9961 48.2977 11.9961C46.8577 11.9961 45.5905 12.2841 44.5393 12.8745C43.4737 13.4649 42.6529 14.2857 42.0769 15.3657C41.5009 16.4313 41.1985 17.6697 41.1985 19.0953C41.1985 20.5209 41.4865 21.7593 42.0769 22.8105C42.6529 23.8761 43.4881 24.6969 44.5393 25.2873C45.6049 25.8777 46.8577 26.1657 48.2977 26.1657C49.7377 26.1657 51.0049 25.8777 52.0561 25.2873C53.1217 24.6969 53.8993 23.9337 54.5185 22.8105C54.6049 22.6665 54.8353 22.1625 54.8353 22.1625L51.7105 21.3561H51.6961Z" fill="#002D74"/>
</svg>
