<svg width="303" height="334" viewBox="0 0 303 334" fill="none" xmlns="http://www.w3.org/2000/svg">
<path d="M0 0H118.292V125.25H0L13.8061 85.4081C18.9202 70.6499 18.9202 54.6002 13.8061 39.8419L0 0Z" fill="white"/>
<path d="M160.042 0H278.333V125.25H160.042L173.848 85.4081C178.962 70.6499 178.962 54.6002 173.848 39.8419L160.042 0Z" fill="white"/>
<path d="M24.3542 173.958H142.646V299.208H24.3542L38.1603 259.366C43.2744 244.608 43.2744 228.559 38.1603 213.8L24.3542 173.958Z" fill="white"/>
<path d="M184.396 208.75H302.687V334H184.396L198.202 294.158C203.316 279.4 203.316 263.35 198.202 248.592L184.396 208.75Z" fill="white"/>
</svg>
