<svg width="851" height="148" viewBox="0 0 851 148" fill="none" xmlns="http://www.w3.org/2000/svg">
<path d="M0 0H47.4579V50.2496H0L5.53893 34.2652C7.59067 28.3443 7.59067 21.9053 5.53894 15.9843L0 0Z" fill="#5C4BD0"/>
<path d="M64.2078 0H111.666V50.2496H64.2078L69.7467 34.2652C71.7984 28.3443 71.7984 21.9053 69.7467 15.9843L64.2078 0Z" fill="#5C4BD0"/>
<path d="M9.77075 69.791H57.2287V120.041H9.77075L15.3097 104.056C17.3614 98.1354 17.3614 91.6963 15.3097 85.7754L9.77075 69.791Z" fill="#5C4BD0"/>
<path d="M73.9785 83.7493H121.436V133.999H73.9785L79.5174 118.014C81.5692 112.094 81.5692 105.655 79.5174 99.7336L73.9785 83.7493Z" fill="#5C4BD0"/>
<path d="M160.595 117.719V12.0679H198.253C206.439 12.0679 213.231 13.4779 218.63 16.298C224.064 19.1181 228.122 23.0216 230.805 28.0083C233.488 32.9607 234.829 38.6869 234.829 45.1869C234.829 51.6525 233.47 57.3443 230.753 62.2623C228.071 67.1459 224.013 70.9461 218.579 73.6631C213.179 76.38 206.387 77.7384 198.202 77.7384H169.674V64.0162H196.757C201.916 64.0162 206.112 63.2768 209.345 61.798C212.612 60.3191 215.002 58.1697 216.515 55.3496C218.029 52.5295 218.785 49.1419 218.785 45.1869C218.785 41.1975 218.011 37.7411 216.464 34.8178C214.951 31.8946 212.56 29.6591 209.293 28.1115C206.06 26.5295 201.813 25.7385 196.551 25.7385H176.535V117.719H160.595ZM212.749 70.0519L238.853 117.719H220.694L195.107 70.0519H212.749Z" fill="#5C4BD0"/>
<path d="M286.145 119.318C278.338 119.318 271.615 117.65 265.975 114.314C260.369 110.943 256.035 106.215 252.975 100.127C249.948 94.0056 248.435 86.835 248.435 78.6154C248.435 70.499 249.948 63.3456 252.975 57.1551C256.035 50.9647 260.3 46.1326 265.768 42.6591C271.271 39.1856 277.702 37.4488 285.062 37.4488C289.533 37.4488 293.866 38.1882 298.062 39.667C302.258 41.1459 306.023 43.4673 309.359 46.6313C312.695 49.7953 315.326 53.9051 317.252 58.9607C319.178 63.9818 320.141 70.0863 320.141 77.2742V82.7424H257.153V71.1869H305.026C305.026 67.1287 304.201 63.5348 302.55 60.4051C300.899 57.2411 298.578 54.7477 295.586 52.925C292.628 51.1022 289.154 50.1908 285.165 50.1908C280.832 50.1908 277.049 51.257 273.816 53.3893C270.617 55.4871 268.141 58.2385 266.387 61.6432C264.668 65.0136 263.808 68.6763 263.808 72.6313V81.6591C263.808 86.9554 264.737 91.4607 266.594 95.1749C268.485 98.8892 271.116 101.727 274.486 103.687C277.857 105.613 281.795 106.576 286.3 106.576C289.223 106.576 291.889 106.163 294.296 105.338C296.703 104.478 298.784 103.205 300.538 101.52C302.292 99.835 303.633 97.7543 304.562 95.2781L319.161 97.9091C317.992 102.208 315.894 105.974 312.867 109.207C309.875 112.405 306.109 114.898 301.57 116.687C297.065 118.441 291.923 119.318 286.145 119.318Z" fill="#5C4BD0"/>
<path d="M352.68 12.0679V117.719H337.255V12.0679H352.68Z" fill="#5C4BD0"/>
<path d="M396.49 119.473C391.469 119.473 386.93 118.544 382.871 116.687C378.813 114.795 375.598 112.061 373.225 108.484C370.886 104.908 369.717 100.523 369.717 95.3297C369.717 90.8588 370.576 87.1789 372.296 84.29C374.016 81.4011 376.337 79.1141 379.26 77.4289C382.184 75.7437 385.451 74.4713 389.062 73.6115C392.673 72.7517 396.353 72.0982 400.101 71.6511C404.848 71.1009 408.699 70.6538 411.657 70.3099C414.615 69.9316 416.764 69.3297 418.105 68.5043C419.447 67.6789 420.117 66.3377 420.117 64.4805V64.1194C420.117 59.6141 418.845 56.1234 416.3 53.6472C413.789 51.171 410.041 49.9329 405.054 49.9329C399.861 49.9329 395.768 51.085 392.776 53.3893C389.818 55.6591 387.772 58.1869 386.637 60.9726L372.141 57.671C373.861 52.8562 376.371 48.9699 379.673 46.0123C383.009 43.0202 386.844 40.8535 391.177 39.5123C395.51 38.1366 400.067 37.4488 404.848 37.4488C408.012 37.4488 411.365 37.8271 414.907 38.5837C418.484 39.3059 421.82 40.6472 424.915 42.6075C428.045 44.5678 430.607 47.3707 432.601 51.0162C434.596 54.6274 435.594 59.3218 435.594 65.0996V117.719H420.53V106.885H419.911C418.914 108.88 417.418 110.84 415.423 112.766C413.428 114.692 410.866 116.291 407.736 117.564C404.607 118.836 400.858 119.473 396.49 119.473ZM399.844 107.092C404.108 107.092 407.754 106.249 410.78 104.564C413.841 102.879 416.162 100.678 417.744 97.9606C419.361 95.2093 420.169 92.2689 420.169 89.1392V78.9249C419.619 79.4752 418.553 79.9911 416.971 80.4726C415.423 80.9197 413.652 81.3152 411.657 81.6591C409.662 81.9686 407.719 82.2609 405.828 82.5361C403.936 82.7768 402.354 82.9831 401.082 83.1551C398.09 83.5334 395.355 84.1697 392.879 85.0638C390.437 85.958 388.477 87.2477 386.998 88.9329C385.554 90.5837 384.832 92.7847 384.832 95.5361C384.832 99.3535 386.242 102.242 389.062 104.203C391.882 106.129 395.476 107.092 399.844 107.092Z" fill="#5C4BD0"/>
<path d="M463.051 147.433C460.747 147.433 458.649 147.244 456.757 146.865C454.866 146.521 453.456 146.143 452.527 145.73L456.241 133.092C459.061 133.848 461.572 134.175 463.773 134.072C465.974 133.969 467.917 133.143 469.602 131.596C471.322 130.048 472.835 127.52 474.142 124.012L476.051 118.75L447.059 38.4805H463.567L483.634 99.9726H484.46L504.527 38.4805H521.087L488.432 128.294C486.919 132.421 484.993 135.912 482.654 138.766C480.315 141.655 477.53 143.822 474.297 145.266C471.064 146.711 467.315 147.433 463.051 147.433Z" fill="#5C4BD0"/>
<path d="M624.571 46.425H608.475C607.856 42.9858 606.704 39.9594 605.019 37.3456C603.334 34.7319 601.27 32.5136 598.829 30.6909C596.387 28.8681 593.653 27.4925 590.626 26.5639C587.634 25.6353 584.453 25.171 581.083 25.171C574.995 25.171 569.544 26.7014 564.729 29.7623C559.949 32.8231 556.166 37.3112 553.38 43.2266C550.629 49.1419 549.253 56.3641 549.253 64.8932C549.253 73.4911 550.629 80.7477 553.38 86.663C556.166 92.5784 559.966 97.0493 564.781 100.076C569.596 103.102 575.012 104.615 581.031 104.615C584.367 104.615 587.531 104.168 590.523 103.274C593.549 102.346 596.284 100.987 598.725 99.1987C601.167 97.4104 603.231 95.2265 604.916 92.6472C606.635 90.0334 607.822 87.0414 608.475 83.671L624.571 83.7226C623.711 88.9157 622.043 93.6961 619.567 98.0638C617.125 102.397 613.978 106.146 610.126 109.31C606.309 112.439 601.941 114.864 597.023 116.584C592.105 118.303 586.74 119.163 580.928 119.163C571.78 119.163 563.629 116.996 556.475 112.663C549.322 108.295 543.682 102.053 539.555 93.9368C535.462 85.8204 533.416 76.1392 533.416 64.8932C533.416 53.6128 535.479 43.9316 539.606 35.8496C543.733 27.7332 549.374 21.5083 556.527 17.175C563.68 12.8073 571.814 10.6234 580.928 10.6234C586.534 10.6234 591.761 11.4316 596.61 13.048C601.494 14.63 605.879 16.9686 609.765 20.0639C613.651 23.1247 616.867 26.8734 619.412 31.3099C621.957 35.712 623.676 40.7504 624.571 46.425Z" fill="#5C4BD0"/>
<path d="M675.784 119.318C668.355 119.318 661.872 117.615 656.335 114.211C650.798 110.806 646.499 106.043 643.439 99.921C640.378 93.7993 638.847 86.6458 638.847 78.4607C638.847 70.2411 640.378 63.0533 643.439 56.8972C646.499 50.7411 650.798 45.9607 656.335 42.5559C661.872 39.1512 668.355 37.4488 675.784 37.4488C683.212 37.4488 689.695 39.1512 695.232 42.5559C700.769 45.9607 705.068 50.7411 708.129 56.8972C711.19 63.0533 712.72 70.2411 712.72 78.4607C712.72 86.6458 711.19 93.7993 708.129 99.921C705.068 106.043 700.769 110.806 695.232 114.211C689.695 117.615 683.212 119.318 675.784 119.318ZM675.835 106.369C680.65 106.369 684.64 105.097 687.804 102.552C690.968 100.007 693.306 96.6194 694.819 92.3892C696.367 88.1591 697.141 83.499 697.141 78.4091C697.141 73.3535 696.367 68.7107 694.819 64.4805C693.306 60.216 690.968 56.794 687.804 54.2147C684.64 51.6353 680.65 50.3456 675.835 50.3456C670.986 50.3456 666.962 51.6353 663.764 54.2147C660.6 56.794 658.244 60.216 656.697 64.4805C655.183 68.7107 654.427 73.3535 654.427 78.4091C654.427 83.499 655.183 88.1591 656.697 92.3892C658.244 96.6194 660.6 100.007 663.764 102.552C666.962 105.097 670.986 106.369 675.835 106.369Z" fill="#5C4BD0"/>
<path d="M729.938 117.719V38.4805H744.846V51.0678H745.672C747.116 46.8033 749.661 43.4501 753.307 41.0083C756.987 38.5321 761.148 37.294 765.791 37.294C766.754 37.294 767.889 37.3284 769.195 37.3972C770.537 37.466 771.586 37.552 772.342 37.6551V52.4091C771.723 52.2371 770.623 52.048 769.041 51.8416C767.459 51.6009 765.877 51.4805 764.295 51.4805C760.649 51.4805 757.399 52.2543 754.545 53.802C751.725 55.3152 749.489 57.4303 747.838 60.1472C746.188 62.8297 745.362 65.8906 745.362 69.3297V117.719H729.938Z" fill="#5C4BD0"/>
<path d="M817.004 119.318C809.197 119.318 802.474 117.65 796.833 114.314C791.227 110.943 786.894 106.215 783.833 100.127C780.807 94.0056 779.294 86.835 779.294 78.6154C779.294 70.499 780.807 63.3456 783.833 57.1551C786.894 50.9647 791.159 46.1326 796.627 42.6591C802.13 39.1856 808.561 37.4488 815.921 37.4488C820.391 37.4488 824.725 38.1882 828.921 39.667C833.116 41.1459 836.882 43.4673 840.218 46.6313C843.554 49.7953 846.185 53.9051 848.111 58.9607C850.037 63.9818 851 70.0863 851 77.2742V82.7424H788.012V71.1869H835.885C835.885 67.1287 835.06 63.5348 833.409 60.4051C831.758 57.2411 829.436 54.7477 826.444 52.925C823.487 51.1022 820.013 50.1908 816.024 50.1908C811.69 50.1908 807.907 51.257 804.675 53.3893C801.476 55.4871 799 58.2385 797.246 61.6432C795.526 65.0136 794.667 68.6763 794.667 72.6313V81.6591C794.667 86.9554 795.595 91.4607 797.452 95.1749C799.344 98.8892 801.975 101.727 805.345 103.687C808.716 105.613 812.653 106.576 817.159 106.576C820.082 106.576 822.747 106.163 825.155 105.338C827.562 104.478 829.643 103.205 831.397 101.52C833.151 99.835 834.492 97.7543 835.421 95.2781L850.02 97.9091C848.85 102.208 846.753 105.974 843.726 109.207C840.734 112.405 836.968 114.898 832.429 116.687C827.923 118.441 822.782 119.318 817.004 119.318Z" fill="#5C4BD0"/>
</svg>
